<mxfile host="app.diagrams.net" agent="Mozilla/5.0 (Windows NT 10.0; Win64; x64) AppleWebKit/537.36 (KHTML, like Gecko) Chrome/129.0.0.0 Safari/537.36" version="24.7.17">
  <diagram name="Page-1" id="vSrU1V59J8BGXjvMUhQw">
    <mxGraphModel dx="1597" dy="857" grid="1" gridSize="10" guides="1" tooltips="1" connect="1" arrows="1" fold="1" page="1" pageScale="1" pageWidth="3300" pageHeight="4681" math="0" shadow="0">
      <root>
        <mxCell id="0" />
        <mxCell id="1" parent="0" />
        <mxCell id="SqMrX3MdcvN79roEV0-a-6" value="Print document process" style="shape=table;startSize=40;container=1;collapsible=0;childLayout=tableLayout;fontSize=13;" vertex="1" parent="1">
          <mxGeometry x="290" y="280" width="970" height="800" as="geometry" />
        </mxCell>
        <mxCell id="SqMrX3MdcvN79roEV0-a-7" value="" style="shape=tableRow;horizontal=0;startSize=0;swimlaneHead=0;swimlaneBody=0;strokeColor=inherit;top=0;left=0;bottom=0;right=0;collapsible=0;dropTarget=0;fillColor=none;points=[[0,0.5],[1,0.5]];portConstraint=eastwest;" vertex="1" parent="SqMrX3MdcvN79roEV0-a-6">
          <mxGeometry y="40" width="970" height="60" as="geometry" />
        </mxCell>
        <mxCell id="SqMrX3MdcvN79roEV0-a-8" value="Student" style="shape=partialRectangle;html=1;whiteSpace=wrap;connectable=0;strokeColor=inherit;overflow=hidden;fillColor=none;top=0;left=0;bottom=0;right=0;pointerEvents=1;" vertex="1" parent="SqMrX3MdcvN79roEV0-a-7">
          <mxGeometry width="300" height="60" as="geometry">
            <mxRectangle width="300" height="60" as="alternateBounds" />
          </mxGeometry>
        </mxCell>
        <mxCell id="SqMrX3MdcvN79roEV0-a-9" value="System" style="shape=partialRectangle;html=1;whiteSpace=wrap;connectable=0;strokeColor=inherit;overflow=hidden;fillColor=none;top=0;left=0;bottom=0;right=0;pointerEvents=1;" vertex="1" parent="SqMrX3MdcvN79roEV0-a-7">
          <mxGeometry x="300" width="670" height="60" as="geometry">
            <mxRectangle width="670" height="60" as="alternateBounds" />
          </mxGeometry>
        </mxCell>
        <mxCell id="SqMrX3MdcvN79roEV0-a-11" value="" style="shape=tableRow;horizontal=0;startSize=0;swimlaneHead=0;swimlaneBody=0;strokeColor=inherit;top=0;left=0;bottom=0;right=0;collapsible=0;dropTarget=0;fillColor=none;points=[[0,0.5],[1,0.5]];portConstraint=eastwest;" vertex="1" parent="SqMrX3MdcvN79roEV0-a-6">
          <mxGeometry y="100" width="970" height="700" as="geometry" />
        </mxCell>
        <mxCell id="SqMrX3MdcvN79roEV0-a-12" value="" style="shape=partialRectangle;html=1;whiteSpace=wrap;connectable=0;strokeColor=inherit;overflow=hidden;fillColor=none;top=0;left=0;bottom=0;right=0;pointerEvents=1;" vertex="1" parent="SqMrX3MdcvN79roEV0-a-11">
          <mxGeometry width="300" height="700" as="geometry">
            <mxRectangle width="300" height="700" as="alternateBounds" />
          </mxGeometry>
        </mxCell>
        <mxCell id="SqMrX3MdcvN79roEV0-a-13" value="" style="shape=partialRectangle;html=1;whiteSpace=wrap;connectable=0;strokeColor=inherit;overflow=hidden;fillColor=none;top=0;left=0;bottom=0;right=0;pointerEvents=1;" vertex="1" parent="SqMrX3MdcvN79roEV0-a-11">
          <mxGeometry x="300" width="670" height="700" as="geometry">
            <mxRectangle width="670" height="700" as="alternateBounds" />
          </mxGeometry>
        </mxCell>
        <mxCell id="SqMrX3MdcvN79roEV0-a-15" value="" style="ellipse;whiteSpace=wrap;html=1;aspect=fixed;fillColor=#050505;" vertex="1" parent="1">
          <mxGeometry x="300" y="400" width="30" height="30" as="geometry" />
        </mxCell>
        <mxCell id="SqMrX3MdcvN79roEV0-a-19" style="edgeStyle=orthogonalEdgeStyle;rounded=0;orthogonalLoop=1;jettySize=auto;html=1;entryX=0.5;entryY=0;entryDx=0;entryDy=0;" edge="1" parent="1" source="SqMrX3MdcvN79roEV0-a-16" target="SqMrX3MdcvN79roEV0-a-17">
          <mxGeometry relative="1" as="geometry" />
        </mxCell>
        <mxCell id="SqMrX3MdcvN79roEV0-a-16" value="log in" style="rounded=1;whiteSpace=wrap;html=1;" vertex="1" parent="1">
          <mxGeometry x="380" y="400" width="100" height="50" as="geometry" />
        </mxCell>
        <mxCell id="SqMrX3MdcvN79roEV0-a-26" style="edgeStyle=orthogonalEdgeStyle;rounded=0;orthogonalLoop=1;jettySize=auto;html=1;entryX=0;entryY=0.5;entryDx=0;entryDy=0;" edge="1" parent="1" source="SqMrX3MdcvN79roEV0-a-17" target="SqMrX3MdcvN79roEV0-a-24">
          <mxGeometry relative="1" as="geometry" />
        </mxCell>
        <mxCell id="SqMrX3MdcvN79roEV0-a-17" value="Upload document" style="rounded=1;whiteSpace=wrap;html=1;" vertex="1" parent="1">
          <mxGeometry x="380" y="500" width="100" height="50" as="geometry" />
        </mxCell>
        <mxCell id="SqMrX3MdcvN79roEV0-a-18" value="" style="endArrow=classic;html=1;rounded=0;exitX=1;exitY=1;exitDx=0;exitDy=0;" edge="1" parent="1" source="SqMrX3MdcvN79roEV0-a-15" target="SqMrX3MdcvN79roEV0-a-16">
          <mxGeometry width="50" height="50" relative="1" as="geometry">
            <mxPoint x="310" y="500" as="sourcePoint" />
            <mxPoint x="360" y="450" as="targetPoint" />
          </mxGeometry>
        </mxCell>
        <mxCell id="SqMrX3MdcvN79roEV0-a-28" style="edgeStyle=orthogonalEdgeStyle;rounded=0;orthogonalLoop=1;jettySize=auto;html=1;entryX=0.5;entryY=1;entryDx=0;entryDy=0;" edge="1" parent="1" source="SqMrX3MdcvN79roEV0-a-20" target="SqMrX3MdcvN79roEV0-a-22">
          <mxGeometry relative="1" as="geometry" />
        </mxCell>
        <mxCell id="SqMrX3MdcvN79roEV0-a-20" value="Choose printing properties" style="rounded=1;whiteSpace=wrap;html=1;" vertex="1" parent="1">
          <mxGeometry x="380" y="600" width="100" height="50" as="geometry" />
        </mxCell>
        <mxCell id="SqMrX3MdcvN79roEV0-a-36" style="edgeStyle=orthogonalEdgeStyle;rounded=0;orthogonalLoop=1;jettySize=auto;html=1;entryX=0.5;entryY=0;entryDx=0;entryDy=0;" edge="1" parent="1" source="SqMrX3MdcvN79roEV0-a-22" target="SqMrX3MdcvN79roEV0-a-34">
          <mxGeometry relative="1" as="geometry">
            <Array as="points">
              <mxPoint x="700" y="570" />
              <mxPoint x="1100" y="570" />
            </Array>
          </mxGeometry>
        </mxCell>
        <mxCell id="SqMrX3MdcvN79roEV0-a-22" value="Checking printing properties" style="rounded=1;whiteSpace=wrap;html=1;" vertex="1" parent="1">
          <mxGeometry x="650" y="595" width="100" height="50" as="geometry" />
        </mxCell>
        <mxCell id="SqMrX3MdcvN79roEV0-a-39" style="edgeStyle=orthogonalEdgeStyle;rounded=0;orthogonalLoop=1;jettySize=auto;html=1;exitX=1;exitY=1;exitDx=0;exitDy=0;entryX=0;entryY=0.5;entryDx=0;entryDy=0;" edge="1" parent="1" source="SqMrX3MdcvN79roEV0-a-23" target="SqMrX3MdcvN79roEV0-a-38">
          <mxGeometry relative="1" as="geometry" />
        </mxCell>
        <mxCell id="SqMrX3MdcvN79roEV0-a-40" value="[valid properties]" style="edgeLabel;html=1;align=center;verticalAlign=middle;resizable=0;points=[];" vertex="1" connectable="0" parent="SqMrX3MdcvN79roEV0-a-39">
          <mxGeometry x="-0.6697" y="-1" relative="1" as="geometry">
            <mxPoint x="9" y="8" as="offset" />
          </mxGeometry>
        </mxCell>
        <mxCell id="SqMrX3MdcvN79roEV0-a-23" value="" style="rhombus;whiteSpace=wrap;html=1;" vertex="1" parent="1">
          <mxGeometry x="810" y="587.5" width="70" height="65" as="geometry" />
        </mxCell>
        <mxCell id="SqMrX3MdcvN79roEV0-a-24" value="Display message" style="rounded=1;whiteSpace=wrap;html=1;" vertex="1" parent="1">
          <mxGeometry x="730" y="500" width="100" height="50" as="geometry" />
        </mxCell>
        <mxCell id="SqMrX3MdcvN79roEV0-a-27" value="" style="endArrow=classic;html=1;rounded=0;exitX=0;exitY=1;exitDx=0;exitDy=0;entryX=1;entryY=0.5;entryDx=0;entryDy=0;" edge="1" parent="1" source="SqMrX3MdcvN79roEV0-a-24" target="SqMrX3MdcvN79roEV0-a-20">
          <mxGeometry width="50" height="50" relative="1" as="geometry">
            <mxPoint x="570" y="900" as="sourcePoint" />
            <mxPoint x="620" y="850" as="targetPoint" />
          </mxGeometry>
        </mxCell>
        <mxCell id="SqMrX3MdcvN79roEV0-a-31" style="edgeStyle=orthogonalEdgeStyle;rounded=0;orthogonalLoop=1;jettySize=auto;html=1;entryX=0.5;entryY=1;entryDx=0;entryDy=0;" edge="1" parent="1" source="SqMrX3MdcvN79roEV0-a-30" target="SqMrX3MdcvN79roEV0-a-23">
          <mxGeometry relative="1" as="geometry" />
        </mxCell>
        <mxCell id="SqMrX3MdcvN79roEV0-a-30" value="Choose printer" style="rounded=1;whiteSpace=wrap;html=1;" vertex="1" parent="1">
          <mxGeometry x="380" y="700" width="100" height="50" as="geometry" />
        </mxCell>
        <mxCell id="SqMrX3MdcvN79roEV0-a-32" value="" style="endArrow=classic;html=1;rounded=0;exitX=0;exitY=1;exitDx=0;exitDy=0;entryX=0;entryY=0.5;entryDx=0;entryDy=0;" edge="1" parent="1" source="SqMrX3MdcvN79roEV0-a-23" target="SqMrX3MdcvN79roEV0-a-20">
          <mxGeometry width="50" height="50" relative="1" as="geometry">
            <mxPoint x="640" y="850" as="sourcePoint" />
            <mxPoint x="690" y="800" as="targetPoint" />
            <Array as="points">
              <mxPoint x="828" y="690" />
              <mxPoint x="600" y="690" />
              <mxPoint x="360" y="690" />
              <mxPoint x="360" y="625" />
            </Array>
          </mxGeometry>
        </mxCell>
        <mxCell id="SqMrX3MdcvN79roEV0-a-33" value="[invalid properties]" style="edgeLabel;html=1;align=center;verticalAlign=middle;resizable=0;points=[];" vertex="1" connectable="0" parent="SqMrX3MdcvN79roEV0-a-32">
          <mxGeometry x="-0.639" y="1" relative="1" as="geometry">
            <mxPoint x="1" y="-11" as="offset" />
          </mxGeometry>
        </mxCell>
        <mxCell id="SqMrX3MdcvN79roEV0-a-35" style="edgeStyle=orthogonalEdgeStyle;rounded=0;orthogonalLoop=1;jettySize=auto;html=1;entryX=1;entryY=0.5;entryDx=0;entryDy=0;" edge="1" parent="1" source="SqMrX3MdcvN79roEV0-a-34" target="SqMrX3MdcvN79roEV0-a-23">
          <mxGeometry relative="1" as="geometry" />
        </mxCell>
        <mxCell id="SqMrX3MdcvN79roEV0-a-34" value="Checking properties validation" style="rounded=1;whiteSpace=wrap;html=1;" vertex="1" parent="1">
          <mxGeometry x="1030" y="595" width="140" height="50" as="geometry" />
        </mxCell>
        <mxCell id="SqMrX3MdcvN79roEV0-a-42" style="edgeStyle=orthogonalEdgeStyle;rounded=0;orthogonalLoop=1;jettySize=auto;html=1;entryX=0.5;entryY=0;entryDx=0;entryDy=0;" edge="1" parent="1" source="SqMrX3MdcvN79roEV0-a-38" target="SqMrX3MdcvN79roEV0-a-41">
          <mxGeometry relative="1" as="geometry" />
        </mxCell>
        <mxCell id="SqMrX3MdcvN79roEV0-a-38" value="Verifies the print request does not exceed page balance." style="rounded=1;whiteSpace=wrap;html=1;" vertex="1" parent="1">
          <mxGeometry x="1030" y="680" width="150" height="50" as="geometry" />
        </mxCell>
        <mxCell id="SqMrX3MdcvN79roEV0-a-43" style="edgeStyle=orthogonalEdgeStyle;rounded=0;orthogonalLoop=1;jettySize=auto;html=1;entryX=0;entryY=0.25;entryDx=0;entryDy=0;" edge="1" parent="1" source="SqMrX3MdcvN79roEV0-a-41" target="SqMrX3MdcvN79roEV0-a-20">
          <mxGeometry relative="1" as="geometry">
            <Array as="points">
              <mxPoint x="340" y="813" />
              <mxPoint x="340" y="613" />
            </Array>
          </mxGeometry>
        </mxCell>
        <mxCell id="SqMrX3MdcvN79roEV0-a-44" value="invalid" style="edgeLabel;html=1;align=center;verticalAlign=middle;resizable=0;points=[];" vertex="1" connectable="0" parent="SqMrX3MdcvN79roEV0-a-43">
          <mxGeometry x="-0.9013" y="3" relative="1" as="geometry">
            <mxPoint x="18" y="-16" as="offset" />
          </mxGeometry>
        </mxCell>
        <mxCell id="SqMrX3MdcvN79roEV0-a-46" style="edgeStyle=orthogonalEdgeStyle;rounded=0;orthogonalLoop=1;jettySize=auto;html=1;exitX=0.5;exitY=1;exitDx=0;exitDy=0;entryX=0.5;entryY=0;entryDx=0;entryDy=0;" edge="1" parent="1" source="SqMrX3MdcvN79roEV0-a-41" target="SqMrX3MdcvN79roEV0-a-45">
          <mxGeometry relative="1" as="geometry" />
        </mxCell>
        <mxCell id="SqMrX3MdcvN79roEV0-a-47" value="valid" style="edgeLabel;html=1;align=center;verticalAlign=middle;resizable=0;points=[];" vertex="1" connectable="0" parent="SqMrX3MdcvN79roEV0-a-46">
          <mxGeometry x="-0.7006" y="-1" relative="1" as="geometry">
            <mxPoint x="6" y="-4" as="offset" />
          </mxGeometry>
        </mxCell>
        <mxCell id="SqMrX3MdcvN79roEV0-a-41" value="" style="rhombus;whiteSpace=wrap;html=1;" vertex="1" parent="1">
          <mxGeometry x="1070" y="780" width="70" height="65" as="geometry" />
        </mxCell>
        <mxCell id="SqMrX3MdcvN79roEV0-a-50" style="edgeStyle=orthogonalEdgeStyle;rounded=0;orthogonalLoop=1;jettySize=auto;html=1;exitX=1;exitY=0.5;exitDx=0;exitDy=0;entryX=0;entryY=0.5;entryDx=0;entryDy=0;" edge="1" parent="1" source="SqMrX3MdcvN79roEV0-a-45" target="SqMrX3MdcvN79roEV0-a-49">
          <mxGeometry relative="1" as="geometry" />
        </mxCell>
        <mxCell id="SqMrX3MdcvN79roEV0-a-45" value="Submit print request" style="rounded=1;whiteSpace=wrap;html=1;" vertex="1" parent="1">
          <mxGeometry x="355" y="860" width="150" height="50" as="geometry" />
        </mxCell>
        <mxCell id="SqMrX3MdcvN79roEV0-a-58" style="edgeStyle=orthogonalEdgeStyle;rounded=0;orthogonalLoop=1;jettySize=auto;html=1;entryX=0.5;entryY=0;entryDx=0;entryDy=0;" edge="1" parent="1" source="SqMrX3MdcvN79roEV0-a-49" target="SqMrX3MdcvN79roEV0-a-52">
          <mxGeometry relative="1" as="geometry">
            <Array as="points">
              <mxPoint x="445" y="940" />
            </Array>
          </mxGeometry>
        </mxCell>
        <mxCell id="SqMrX3MdcvN79roEV0-a-49" value="Process and print" style="rounded=1;whiteSpace=wrap;html=1;" vertex="1" parent="1">
          <mxGeometry x="660" y="890" width="150" height="50" as="geometry" />
        </mxCell>
        <mxCell id="SqMrX3MdcvN79roEV0-a-57" style="edgeStyle=orthogonalEdgeStyle;rounded=0;orthogonalLoop=1;jettySize=auto;html=1;entryX=0;entryY=0.5;entryDx=0;entryDy=0;" edge="1" parent="1" source="SqMrX3MdcvN79roEV0-a-52" target="SqMrX3MdcvN79roEV0-a-55">
          <mxGeometry relative="1" as="geometry" />
        </mxCell>
        <mxCell id="SqMrX3MdcvN79roEV0-a-52" value="Retrieve the document" style="rounded=1;whiteSpace=wrap;html=1;" vertex="1" parent="1">
          <mxGeometry x="370" y="970" width="150" height="50" as="geometry" />
        </mxCell>
        <mxCell id="SqMrX3MdcvN79roEV0-a-55" value="" style="ellipse;whiteSpace=wrap;html=1;aspect=fixed;" vertex="1" parent="1">
          <mxGeometry x="870" y="970" width="50" height="50" as="geometry" />
        </mxCell>
        <mxCell id="SqMrX3MdcvN79roEV0-a-54" value="" style="ellipse;whiteSpace=wrap;html=1;aspect=fixed;fillColor=#050505;" vertex="1" parent="1">
          <mxGeometry x="880" y="980" width="30" height="30" as="geometry" />
        </mxCell>
      </root>
    </mxGraphModel>
  </diagram>
</mxfile>
